<?xml version="1.0" standalone="no"?>
<!DOCTYPE svg PUBLIC "-//W3C//DTD SVG 20010904//EN"
 "http://www.w3.org/TR/2001/REC-SVG-20010904/DTD/svg10.dtd">
<svg version="1.0" xmlns="http://www.w3.org/2000/svg"
 width="16.000000pt" height="16.000000pt" viewBox="0 0 16.000000 16.000000"
 preserveAspectRatio="xMidYMid meet">
<metadata>
Created by potrace 1.11, written by Peter Selinger 2001-2013
</metadata>
<g transform="translate(0.000000,16.000000) scale(0.003125,-0.003125)"
fill="#000000" stroke="none">
<path d="M2536 4163 c-85 -175 -234 -339 -431 -473 -150 -102 -530 -326 -697
-410 l-136 -70 -9 -67 c-13 -109 -7 -309 12 -403 49 -239 169 -483 315 -640
l51 -55 -51 69 c-112 151 -172 314 -171 471 0 190 99 332 316 455 53 30 233
137 400 237 168 100 334 198 369 218 l65 36 38 -19 c21 -11 94 -54 163 -95
440 -263 549 -328 636 -377 194 -111 286 -227 314 -399 24 -141 -47 -362 -170
-527 l-50 -69 50 55 c149 161 265 397 315 640 20 92 26 313 12 412 l-8 57
-162 84 c-182 94 -519 294 -677 401 -191 130 -342 295 -426 469 -16 31 -31 57
-34 57 -3 0 -18 -26 -34 -57z"/>
<path d="M2366 3064 c-155 -35 -311 -116 -427 -223 l-64 -59 29 -30 28 -30 47
44 c107 105 274 188 427 215 39 7 116 10 183 7 95 -4 133 -11 211 -37 190 -64
359 -197 451 -356 l29 -50 0 175 0 174 -39 -38 -39 -38 -72 61 c-82 68 -219
140 -330 172 -100 28 -333 36 -434 13z"/>
<path d="M1025 2833 c-71 -49 -218 -118 -300 -141 -115 -33 -181 -44 -291 -45
-57 -1 -104 -3 -104 -3 0 -1 34 -35 76 -75 42 -41 98 -107 125 -147 74 -113
305 -592 348 -723 l12 -36 127 -25 c70 -14 129 -24 130 -22 2 1 -22 33 -53 70
-149 175 -264 401 -330 645 l-23 87 67 50 c75 57 228 146 278 163 24 8 32 15
29 27 -10 36 -26 137 -26 168 0 18 -3 35 -7 37 -5 2 -30 -12 -58 -30z"/>
<path d="M4057 2862 c-2 -4 -5 -26 -6 -48 -1 -23 -8 -70 -16 -105 -9 -47 -10
-65 -1 -68 67 -24 269 -145 338 -203 l28 -23 -30 -101 c-75 -259 -176 -453
-327 -631 -30 -35 -53 -66 -51 -68 1 -1 60 9 130 23 l127 25 12 36 c46 140
293 647 363 744 24 34 76 93 115 130 39 38 71 70 71 71 0 1 -18 0 -39 -2 -59
-6 -225 15 -316 38 -103 27 -232 84 -322 143 -40 25 -74 43 -76 39z"/>
<path d="M2445 2634 c-11 -3 -44 -15 -73 -26 -46 -18 -53 -24 -48 -42 8 -30
-138 -178 -169 -170 -17 4 -24 -5 -47 -63 -36 -94 -42 -154 -24 -240 19 -94
49 -153 74 -146 13 3 42 -18 96 -68 64 -60 76 -76 72 -95 -5 -19 0 -27 26 -40
111 -57 275 -57 386 0 24 13 33 23 29 36 -7 26 154 185 171 168 9 -9 15 -8 27
8 53 70 65 262 23 374 -21 57 -27 65 -48 62 -36 -4 -173 134 -165 166 5 20 -2
26 -52 50 -49 22 -74 27 -158 28 -55 2 -109 1 -120 -2z"/>
<path d="M1172 2398 c-66 -23 -195 -42 -225 -33 -16 5 -9 -6 27 -41 78 -78
132 -173 246 -434 41 -92 31 -85 142 -104 l38 -7 -55 73 c-30 39 -68 97 -84
128 -28 52 -91 225 -91 249 0 6 25 27 55 47 30 20 55 41 55 45 0 14 -43 99
-49 98 -4 -1 -30 -10 -59 -21z"/>
<path d="M3882 2375 c-12 -25 -22 -49 -22 -54 0 -4 25 -25 55 -45 30 -20 55
-41 55 -47 0 -6 -14 -52 -31 -103 -36 -109 -84 -199 -151 -284 l-49 -63 38 7
c114 20 103 11 148 114 99 226 159 333 221 400 l62 65 -72 2 c-61 2 -164 24
-216 47 -12 5 -22 -6 -38 -39z"/>
<path d="M1830 1598 l0 -142 38 36 37 37 57 -47 c373 -308 874 -291 1236 42
l43 39 -32 33 -32 33 -56 -55 c-153 -152 -354 -234 -576 -234 -116 0 -200 16
-307 58 -139 53 -287 171 -366 290 -19 28 -36 52 -38 52 -2 0 -4 -64 -4 -142z"/>
</g>
</svg>
